<svg width="853" height="732" viewBox="0 0 853 732" fill="none" xmlns="http://www.w3.org/2000/svg">
<g clip-path="url(#clip0_97_272)">
<path d="M478.829 0.875972L657.46 0.90467L705.249 0.888793C722.805 0.883907 740.502 0.101067 757.674 4.07814C779.794 9.26672 800.026 20.5263 816.085 36.5884C856.379 76.7194 851.999 118.404 851.779 169.799C851.724 181.44 852.249 194.421 851.223 205.877C848.566 234.635 835.78 261.516 815.145 281.73C798.7 298.078 777.918 309.384 755.255 314.318C739.519 317.798 724.29 316.974 708.26 316.961L660.606 316.913L488.279 316.943C489.293 309.711 489.794 299.217 490.362 291.703C491.822 277.279 492.677 261.166 493.771 246.581L499.379 172.796L636.996 172.82C637.882 175.57 638.932 178.263 640.154 180.883C646.355 194.249 657.644 204.581 671.51 209.577C685.719 214.746 701.406 214.022 715.084 207.567C728.425 201.157 738.664 189.693 743.52 175.714C748.694 161.031 747.619 144.87 740.551 130.998C733.758 117.694 721.932 107.654 707.698 103.109C693.612 98.5637 678.291 99.8919 665.2 106.793C651.064 114.17 641.852 126.048 637.137 141.106L499.8 141.075C497.186 129.223 488.023 112.941 473.545 117.7C462.513 121.326 460.949 141.104 456.941 150.743L465.683 1.01275L478.829 0.875972Z" fill="#00CCFF"/>
<path d="M173.377 0.885452L385.666 0.948345C386.976 14.1729 387.553 29.8858 388.394 43.3955L394.394 144.923C390.9 134.342 389.671 116.999 376.519 114.851C372.205 114.151 367.79 115.197 364.25 117.759C356.907 123.027 353.737 132.539 352.444 141.095L214.561 141.17C213.528 137.866 212.7 135.442 211.203 132.302C204.653 118.661 192.891 108.227 178.564 103.347C164.759 98.6605 149.65 99.6986 136.614 106.229C122.886 112.959 112.433 124.915 107.6 139.417C102.952 153.783 104.223 169.408 111.134 182.834C118.056 196.103 129.989 206.063 144.285 210.504C158.724 214.956 174.344 213.453 187.668 206.327C201.168 199.077 210.203 187.315 214.669 172.805L280.252 172.817L352.665 172.781C355.296 220.777 359.719 268.87 361.875 316.894H361.329L193.565 316.931L143.26 316.967C128.754 316.967 112.581 317.633 98.5228 314.702C75.2119 309.918 53.7764 298.515 36.7856 281.86C13.3012 258.551 0.30005 228.625 0.130228 195.519L0.116787 145.862C0.100904 134.794 -0.296767 120.259 0.757599 109.629C3.74293 81.9016 16.162 56.0387 35.9377 36.3677C77.248 -4.93086 120.557 0.862248 173.377 0.885452Z" fill="#F05FBD"/>
<path d="M371.705 123.914C373.461 123.84 374.943 123.699 376.617 124.411C378.157 125.067 379.106 126.88 379.572 128.429C382.558 138.356 385.425 148.387 388.332 158.332L404.574 213.228L466.435 424.988C470.271 438.489 473.985 452.028 477.583 465.596C478.695 469.681 480.021 474.102 481.041 478.15C490.558 516.053 521.126 539.831 560.326 539.452C570.509 539.354 582.978 542.005 592.452 545.669C616.85 554.932 636.495 573.63 646.947 597.542C657.112 621.119 657.546 647.761 648.157 671.661C639.184 694.603 620.454 713.313 597.962 723.162C574.938 733.244 548.83 733.659 525.488 724.329C499.123 713.832 478.891 692.013 470.412 664.932C467.352 655.265 464.865 640.085 462.861 629.784L451.536 571.646C448.14 554.261 445.885 537.376 438.86 521.121C435.061 512.908 431.054 507.498 425.024 500.891C406.052 520.077 403.19 545.871 398.17 571.041L385.095 636.739C382.138 651.425 379.978 665.079 373.363 678.727C366.851 691.941 357.306 703.439 345.506 712.269C325.413 727.418 300.064 733.855 275.174 730.111C250.133 726.307 227.623 712.733 212.578 692.368C170.981 635.866 203.533 556.092 271.188 541.571C280.027 539.672 287.972 539.77 296.913 539.221C312.343 538.421 327.201 533.12 339.653 523.973C362.661 506.783 366.005 486.113 373.414 460.454C380.002 437.647 379.401 434.282 377.848 411.029L374.752 365.195L364.312 207.293L362.01 172.177C361.061 157.164 357.902 134.086 371.705 123.914ZM348.236 630.419C345.358 597.762 316.588 573.587 283.907 576.365C251.087 579.156 226.777 608.063 229.667 640.86C232.557 673.658 261.549 697.876 294.353 694.884C327.016 691.91 351.115 663.082 348.236 630.419ZM619.244 628.654C615.451 596.169 586.122 572.848 553.6 576.463C520.826 580.102 497.278 609.706 501.102 642.448C504.926 675.184 534.669 698.565 567.399 694.56C599.873 690.584 623.043 661.14 619.244 628.654ZM446.851 432.054C444.016 420.037 431.963 412.599 419.947 415.45C407.952 418.296 400.528 430.313 403.357 442.306C406.187 454.299 418.2 461.737 430.204 458.922C442.226 456.107 449.685 444.071 446.851 432.054Z" fill="white"/>
<path d="M478.017 126.247C496.899 131.939 490.173 170.731 489.037 185.689L484.101 248.956L476.056 352.995C474.627 371.278 473.521 390.36 471.493 408.502L465.366 387.417C454.058 348.702 442.898 308.811 431.022 270.364C432.47 263.838 435.659 254.26 437.681 247.542L450.112 206.595L464.01 161.798C467.046 151.763 469.807 141.569 473.099 131.621C474.309 127.951 474.51 127.904 478.017 126.247Z" fill="white"/>
</g>
<defs>
<clipPath id="clip0_97_272">
<rect width="853" height="732" fill="white"/>
</clipPath>
</defs>
</svg>
